<mxfile host="app.diagrams.net" modified="2024-03-21T18:38:37.099Z" agent="Mozilla/5.0 (Windows NT 10.0; Win64; x64; rv:125.0) Gecko/20100101 Firefox/125.0" version="24.0.7" etag="mHbf_kBO3Hq8t-B_FCrr" type="github">
  <diagram name="PÃ¡gina-1" id="OuZ4UV9SxOawH2xZ9aT6">
    <mxGraphModel>
      <root>
        <mxCell id="0" />
        <mxCell id="1" parent="0" />
      </root>
    </mxGraphModel>
  </diagram>
</mxfile>
